<?xml version="1.0" encoding="UTF-8"?>
<svg id="Calque_1" data-name="Calque 1" xmlns="http://www.w3.org/2000/svg" xmlns:xlink="http://www.w3.org/1999/xlink" viewBox="0 0 500 500">
  <defs>
    <style>
      .cls-1 {
        fill: #fff;
      }

      .cls-2 {
        fill: url(#Dégradé_sans_nom_22);
      }
    </style>
    <linearGradient id="Dégradé_sans_nom_22" data-name="Dégradé sans nom 22" x1="23.9" y1="251.28" x2="476.1" y2="251.28" gradientUnits="userSpaceOnUse">
      <stop offset="0" stop-color="#008440"/>
      <stop offset="1" stop-color="#b9e100"/>
    </linearGradient>
  </defs>
  <path class="cls-1" d="M63.13,338.46c-10.11-3.35-24.57-10.3-39.25-26.52-17.24-8.77-31.93-32.24-18.88-46.9-2.89-21.76,3.17-33.44,8.11-39.7,23.5-29.82,81.97-13.88,205.42-21.29,21.51-1.29,38.83-2.92,49.02-3.96-25.7-25.09,16.97-55.09,39.79-34.56,25.23,19.9,29.17,8.39,54.69,1.58,18.18-18.53,57.5-7.34,64.09,15.51,40.31-4.4,70.45,42.6,73.89,74.41-1.75,10.1-11.17,17.92-21.88,19.53-.78,9.74-.73,21.12-9.02,27.33-18.51,26.8-65.44,30.55-73.43-5.97-4.41,2.58-9.5,3.88-14.17,6.06-2.62,1.38-4.65,1.87-8.53,4.19-16.11,36.79-63.19,16.38-96.37,20.09-23.51,5.55-44.79,16.08-68.34,1.99-10.89.71-27.73,1.97-48.28,4.18-55.67,5.97-73.24,11.89-96.86,4.05Z"/>
  <path class="cls-2" d="M474.9,252.33c-1.47-.45-3.28-.51-4.88-.66-2.51-.45-4.84-1.69-6.86-3.14-1.84-1.62-3.38-3.61-5.45-5.05-1.55-1.29-1.8-3.34-3.01-4.76-.76-.97-1.79-2.25-1.14-3.5.52-1.08,2.25-.66,3.84-.85,2.48-.44,4.6-2.05,6.84-2.96.95-.5,2.29-.86,2.81-1.73.04-.23-.19-.44-.67-.6-1.38-.39-3.09-.47-4.61-.48-3.3.29-5.14-1.67-7.96-2.27-1.56-.12-2.04.94-3.63.94-1.6-.07-3.51-1.01-3.08-2.77.2-1.2,2.08-6.37,3.86-3.93.45.82.52,2.56,1.65,2.5,3.27-1.99,2.01-7.14-1.79-7.84-5.68-1.29-5.46,2.16-8.62,3.09-1.64-.77-.13-3.53-2.04-4.25-1.76-.72-3.51,1.2-5.18,1.3-3.72-1.13,1-6.06,1.58-8.07,2.98-7.11-5.55-2.39-8.72-1.23-5.02.17-3-2.13-7.43,1.98-2.54,2-2.04-2.93-5.39-2.69-2.33-.15-5.11.65-7.16.35-4.37-.76-5.39-5.56-6.65-8.91-.75-2.65-2.38-5.59-.35-7.53,3.22-2.51.73-3.35-1.89-4.25-1.37-.42-2.57-1.3-3.91-1.69-4.01-.37-4.39-1.59-7.27-4.05-.65-.47-1.55-1.37-1.11-.18.91,1.52,2.12,3.61,2.11,5.29.05,1.68.72,3.35,1.25,4.96.52,1.91-.16,3.36.51,5.09,1.14,2.5,2.11,5.45,4.19,7.27,9.57,5.83.91,7.43-5.62,6.99-10.56-.49-.34-6-11.09-11.11-1.86-1.36-5.2-2.41-4.49-4.58.59-.95,2.01-1.58,2.81-2.3,1.71-1.51-3.73-2.03-5.49-1.83-1.77.06-1.91,1.21-1.82,2.37-.72,1.02-4.74-1.9-6.62-1.72-4.01-.46-4.64,3.87-7.57,5.23-1.68.99-4.78.74-6.07,2.08-.06.22.11.4.46.59,2.2,1.14,5.77.68,7.9.85,1.7.2,3.28.84,5,.98,1.96.28,3.92-.63,5.86-.28,1.76.37,3.3,1.77,3.22,3.43-.31,2.12-3.5,2.48-5.47,2.74-4.49.25-8.85-1.97-13.34-2.16-3.22-.03-6.06.95-9.29,1.23-1.74.2-3.55.28-5.28.49-2.29.31-3.34,1.03-4.8,1.22-2.04.16-3.81-1.27-5.65-2.09-1.58-.77-3.25-1.43-4.82-2.17-7.1-3.66-12.81-10.06-20.41-13.12-2.61-1.2-5.26-2.48-7.69-3.99-2.75-1.7-6.8-4.71-10.08-2.93-1.95,1.79,2.13,5.04,4.15,5.18,1.66-.26,2.9-1.9,4.96-.96,8.14,3.67,14.39,10.61,22.58,14.3,2.81,1.42,5.92,2.59,8.62,4.21,2.25,1.35,4.2,3.14,6.38,4.56,2.69,1.75,5.93,3.31,8.16,5.72,1.58,1.96,3.86,4.45,4.88,6.55-.07.61-1.05.6-2.3.51-1.76-.09-3.06-1.27-4.31-1.73-.13-.01-.24.06-.35.13-1.32,1.58-2.51,1.24-4.49.89-2.29-.15-3.92,1.82-6.06,2.29-3.48.75-7.53.37-11.13.32-.76-.1-2.98-.02-3.08-.58,3.34-.92,3.44-3.71,4.21-6.62.4-1.48,1.64-2.97,1.52-4.49-.57-1.53-3.75-.2-5.03-2.58-1.52-2.55-1.55-.88-3.55-1.87-1.25-.76-3.09-2.55-4.99-2.56-2.31.02-5.23.97-6.64,2.79-2.66,3.81,3.16,6.95,2.6,10.88-.18,3.61-2.87,3.22-6.19,3.28-5.53.12-14.31.34-19.66.46-8.17.21-16.18.28-24.37-.03-3.42.01-6.71-1.72-10.08-1.04-2.65.95-1.48,2.63-5.21,3.19-5.45.95-10.37,2.46-15.72,3.47-5.64.94-11.46.84-17.06,1.54-2.2.37-3.79,1.96-6.12,1.68-4.84-.29-9.98-2.36-14.95-1.65-3.36.22-5.76-1.78-9.06-1.84-4.21-.65-8.93.29-13.45.63-2.54.11-5.22.8-7.24.09-2.79-1.5-6.4-.56-9.35-1.39-3.12-.98-5.47-.04-9.12,0-9.21-.16-18.26-1.48-27.45-1.44-2.57-.17-16.82-.6-6.17.53,3.66.39,7.54.79,11.22,1.18,3.4.48,7.34.22,8.48,3.12-7.42.49-24.96-2.25-34.67-2.73-11.78-.8-24.92-.85-36.12,2.35-.42.23-.58.53-.32.88,1.12,1.27,4.99,1.64,5.95,2.05.97.46-1.65.49-2.11.5-5.03.18-10.01-.17-14.87.87-1.35.44-2.48,1.07-3.07,2.19-.34.47-.54,1.04-.01,1.46,1.08.79,2.83.95,4.5,1.02,6.83.38,13.64.5,20.56.63,2.38.07,5.62.1,7.67.18,1.26.06,1.85.3,1.67.67-5.17,3.86-4.57,2.07-9.96,1.03-4.9-.36-11.68-.82-16.82-.92-5.29-.27-3.92,1.71-7.36,2.84-1.28.38-7.02-.18-5.67,2.32.76,1.08,2.29,1.84,3.03,2.86,3.91,5.42-3.14,4.2-.04,7.51,1.48,1.49.63,2.79-.76,4.36-2.48,2.46-1.79,6.05-1.42,9.09.55,4.59-6.48,7.32-5.17,11.88v.04c.23,1.26,1.13,2.18,2.19,2.92.41.31.91.64,1.4.41.85-.46.61-1.63,1.72-2.12,1.34-.47,3.31-.3,4.14.85,1.07,1.61-.43,3.53-.52,5.25-2.23,6.21,19.1,4.92,9.17,8.01-1.85.84,3.36,1.62,3.92,2.93.73.88.54,2.01.66,3.07,0,2.27,1.7,4.38,3.93,5.23,1.6.53,2.6-.02,3.92.35,1.11.29.36,1.16-.47,1.43-.77.37-2.06.38-2.79.56-.45.13-.34.35.34.66,1.98.83,4.37,1.55,6.32,2.27,7.81,2.62,15.69,5.35,23.87,6.64,5.4.69,9.64-3.33,13.11-6.62,1.02-.86,2.06-1.41,3.12-1.37,1.41.04,2.63.8,1.83,1.88-.52.73-1.62,1.6-1.24,2.49,1.3,1.64,3.72,2.62,5.65,3.59,2.03.93,3.56,2,5.71,3.3,5.94,3.63,8.93-4.12,13.46-6.33,5.28-2.86,10.67-6.39,17.04-6.11,3.73.32,7.35,1.22,11.09,1.36,5.8.32,11.64-.46,17.53-.84,7.65-.42,17.31-.44,24.67-.59,2.94.16,5.04-1.21,7.71-1.91,3.33-.83,7.23-.94,10.69-1.67,8.68-1.56,9.71-2.12,15.61,4.48,3.02,2.48.63,4.66,5.61,3.71,4.2-.66,8.77-1.24,11.8-4.24.78-.61,1.88-2.05,2.77-2.19.59,1.15-2.11,3.99-1.88,5.59.57.95,1.85-.89,2.81-2.29,1.85-2.24,3.07-6.29,6.21-6.36,13.28-.01,39.11.44,49.86.28,5-.06,15.75-.17,20.23-.21,1.01-.01,1.97-.07,2.79-.64,1.68-1.04,3.57-4.71,6.04-3.54,2.27,1.68-.59,4.97-1.31,6.57-.82,1.4.36,1.93,1.61,1.21,1.68-2.28,1.8-1.32,4.01-2.74.64-.47.91-1.18,1.28-1.83.57-1.02,1.92-2.15,3.16-2.98t.02-.01c1.53.74,3.42,1.62,5.62,2.56l-1.13-1.41h1c-.04-.16-.05-.3-.06-.46-.16-2.19.88-4.35,2.69-6.42.3-.36.64-.69.99-1.04.06-.07.14-.15.22-.21.04-.04.08-.08.12-.12.1-.09.19-.18.3-.27.52-.48,1.07-.95,1.67-1.42.13-.11.28-.22.42-.32.4-.3.79-.6,1.21-.89.24-.17.49-.34.75-.5.25-.18.51-.35.76-.51.01-.01.02-.01.04-.03.25-.15.49-.3.75-.46.26-.17.53-.34.81-.5.48-.29.99-.58,1.49-.88.06-.02.11-.04.16-.08.28-.16.55-.31.84-.47.28-.16.57-.31.85-.47.1-.06.19-.1.3-.16.31-.17.64-.34.95-.49.05-.03.1-.06.14-.08.41-.21.83-.42,1.25-.64.31-.16.64-.31.96-.47.18-.09.37-.18.55-.27.37-.18.75-.36,1.12-.53.01-.01.04-.02.05-.02.45-.21.9-.41,1.35-.61.45-.21.89-.4,1.34-.6.02-.01.04-.01.05-.02.37-.16.73-.32,1.09-.48.06-.02.12-.04.18-.07.66-.29,1.31-.56,1.95-.83.64-.27,1.26-.53,1.88-.77.2-.09.41-.17.61-.25,1.08-.44,2.12-.84,3.08-1.21.26-.11.53-.21.78-.31.72-.27,1.38-.53,2.01-.76.05-.02.1-.04.14-.07.06-.02.11-.06.17-.08.04-.02.07-.04.11-.07.04-.03.07-.06.12-.09.04-.03.07-.06.1-.09.3-.26.51-.58.6-.94,0-.04.01-.08.02-.11,0-.06.01-.1.02-.16.02-.21.01-.42-.05-.64-.96-3.77-1.73-8.06-2.27-11.57-.55-3.67-2.66-5.83-4.98-8.35-.29-.31-.83-.42-1.64-.68-7.3-2.37-11.32,1.37-16.3-1.01-1.54-.74-4.69-2.56-7.13-4.83-2.39-1.9-3.86-2.87-4.81-3.61-.94-.74-1.35-1.22-1.6-2.12-.11-.4.2-1.81.38-3.48.13-1.11,1.23-1.87,2.38-1.7.05.01.1.02.14.02.05.01.1.02.14.03.14.04.29.1.42.18.6.31,8.55,4.94,15.82,5.33.96.06,2.81.15,5.08-.36,1.52-.34,1.38-.56,3.38-1.02,1.86-.42,3.13-.5,5.2-1.07.07-.02.14-.04.24-.07.06-.02.14-.06.22-.08.17-.06.36-.12.57-.2.04-.02.08-.03.12-.04.11-.04.22-.09.34-.13.11-.04.23-.09.35-.15.12-.04.24-.1.36-.16s.24-.11.35-.16c.94-.44,1.37-1.45,1.03-2.37-.45-1.17-1.06-2.39-1.71-3.17-1.05-1.25-2.42-2.55-3.39-3.43-2.11-1.9-1.89-7.6-1.79-8.66.19-2.24,1.19-3.49,1.54-3.98,1.11-1.51,1.34-1.32,2.51-1.98,1.62-.53,2.3-.93,4.28-1.03.54-.02,1.14-.06,1.79-.04.13,0,.26.01.41.01.19.01.38.02.58.04.06.01.11.02.17.02.06.01.13.02.19.03.06.01.12.02.18.03.14.02.29.06.45.1.07.01.14.03.22.06.1.03.18.06.28.09.05.02.11.04.17.07.07.03.14.07.22.09.14.07.28.13.42.21h.01c.07.04.14.09.22.12,1.54.96,2.56,2.95,3.3,4.8.73,1.84,1.41,4.5,1.64,6.36.1.8.17,1.14.19,1.6.05,1.94.43,2.95,1.67,4.43.43.39.38.75,1.05,1.02.66.28,1.37.38,2.11.38.34,0,.69-.02,1.05-.07.17-.01.35-.04.53-.07.26-.04.54-.1.82-.16.18-.03.36-.08.54-.12.64-.15,1.29-.32,1.94-.48.19-.06.37-.1.55-.15.19-.04.37-.09.55-.13.65-.15,1.3-.26,1.94-.32.17-.01.35-.03.53-.04h.28c1.55-.02,4.22.57,5.73,1.17,3.61,1.44,7.17,2.81,10.71,4.08,1.38.5,2.62.97,3.84,1.5,1.38.59,2.91,1.32,4.04,1.97,1.13.64,2.47,1.22,3.24,1.81,1.29.98,2.18.98,2.74,2.51.05.12.08.26.12.39.04.09.06.19.08.28v.02c.01.08.04.17.05.26v.03s.01.08.02.11c.01.1.02.19.04.29h0c.08.3.16.6.2.91.22,1.29.35,2.54.36,3.85l.05,5.02c.01.87.05,1.74.42,2.54l1.49,3.29c.4.88.89,1.63,1.58,2.36l2.08,2.2c.24.26.59.86.3,1.16-.43.45-1.31.06-1.88-.35l.63,1.1c.08.15.02.54-.1.66-.54.55-1.66.07-2.2-.48-1.13-1.14-1.6-2.08-2.63-3.19.31,1.18.84,2.19,1.41,3.25.18.35.18.83-.24.98-1.11.39-2.24-.65-2.75-1.48-.36-.57-.7-1.11-.99-1.72-.4-.85-.93-1.78-1.92-2.17-.07-.03-.16-.06-.24-.07-.83-.2-1.78.18-2.37.69-.31.26-.53.48-.79.75-.24.27-1.65,1.4-3.32,1.2-.69-.09-1.76-.44-1.79-.99-.02-.36.4-.66.61-.79.49-.25,1.31-.29,2.15-1.29.46-.55.84-1.11,1.21-1.71l1.95-3.09c.48-.76.61-1.58.36-2.45-.35-1.17-.85-2.29-1.52-3.34l-1.13-1.79c-.3-.47-.54-.95-.75-1.44h0s.01-.09.02-.12v-.15c.01-.22-.05-.46-.25-.69-.26-.3-.67-.45-1.15-.5-.4-.06-.82-.04-1.24-.02h-.16c-.32.02-.63.03-.89.03s-1.41.01-1.7-.02c-.97-.11-3.06-.3-3.61.3-.71.78-.55,1.45-.47,2.12,1.05,8.6-1.74,15.31-.66,25.32,1.48,13.44,2.45,16.73,3.36,17.92,2.37,3.1,5.43,4.87,7.58,5.88.18-.07.45-.19.78-.28,2.11-.55,4.16-.03,6.23-.82,2.86-1.35,5.69-3.16,7.95-5.3,3.12-2.28-.12-7.79,4.22-8.2,1.66-.17,3.8.01,5.18-1.05,1.98-1.74-.7-5.22-2.41-6.97-1.62-1.36-3.99-4.39-.66-5.29,1.43-.17,3.01,2.47,4.26,1.79.51-.63.34-1.59-.18-2.2-.93-1.06-2.26-1.92-3.68-1.99-1.5.18-3.7-1.15-2.44-2.64.78-.96,2.43-.69,3.32-1.43.59-.61-.12-1.8-1.03-2.16-.75-.28-1.58.06-2.24.39-.52.2-1.01.8-1.4.23-.73-1.4-.29-5.13-.65-7.19.17-2.41-1.17-6.64.94-8.13,1.12-.69,3.84-.58,5.22-1.61.96-.59,1.43-1.69,2.44-2.16,3.6-.59,7.24,2.48,10.47,3.7,2.91,1.3,9.35,4.28,11.74,1.36.07-.4-.38-.77-1.19-1.01ZM75.64,236.89h18.03c6.24,0,11.02,1.39,14.3,4.15,3.61,3.03,5.81,6.73,6.59,11.09h-.02c-5.23.88-9.15,1.74-10.74,2.09-.02.01-.05.02-.08.02-.42-1.79-1.34-3.23-2.74-4.35-2.01-1.6-4.5-2.4-7.47-2.4h-6.99v11.46c-2.86.97-6.59,2.31-10.87,4.14v-26.19ZM75.64,264.07s6.39-1.63,10.87-2.77v4.91h6.99c3.08,0,5.59-.8,7.55-2.4,1.92-1.58,2.9-3.86,2.94-6.85h.01c2.41-.54,6.29-1.41,10.85-2.22.02.37.02.75.02,1.13,0,2.65-.51,5.31-1.52,7.98-.04.11-.07.21-.12.31-4.2.76-7.31,1.44-8.7,1.74-3.96.88-10.07,2.27-17.73,4.85-2.96.99-6.78,2.38-11.17,4.25v-10.92ZM86.52,298.15h-10.87v-8.1s6.38-1.63,10.87-2.77v10.88ZM92.27,283.12l-5.59-8.41h-.16v10.21c-2.86.97-6.59,2.32-10.87,4.15v-13.08s6.57-1.69,11.17-2.85c9.67-2.46,14.59-3.71,17.95-4.46,1.7-.38,4.14-.93,7.02-1.5-.73,1.24-1.59,2.35-2.55,3.32-2.38,2.31-5.63,3.99-9.77,5.04l3.43,4.86c-2.72.61-6.33,1.45-10.63,2.72ZM102.25,298.15l-8.46-12.72c4.88-1.24,7.94-1.99,10.24-2.5.18-.04.37-.09.57-.12l10.85,15.35h-13.2ZM148.1,236.89h8.49l4.47,11.12c-4.6.09-8.99.39-17.79,1.02h-.02s4.85-12.14,4.85-12.14ZM142.15,251.79c8.82-.45,15.97-.37,20.34-.25l3.2,7.96c-.78,0-1.56.01-2.36.02-2.61.04-5.16.16-8.46.37l-2.49-7.03h-.16l-2.62,7.38c-1.37.1-2.87.2-4.53.32-2.3.17-4.47.31-6.62.49l3.69-9.27ZM137.36,263.79c2.43-.17,4.62-.29,6.54-.38,1.61-.09,3.16-.16,4.66-.2l-3,8.45h13.48l-3.06-8.61c3.57-.02,6.56.03,8.81.09.76.02,1.54.04,2.38.07l4.1,10.23.25.63c-.69-.02-1.38-.04-2.08-.06h-.01c-2.66-.06-5.43-.07-8.3-.01-4.61.08-9,.39-17.8,1.02-3.81.27-7.33.53-10.79.83l4.81-12.05ZM169.23,298.15l-3.48-8.77-.78-1.97-2.01-5.07h-21.06l-6.27,15.82h-11.99l7.85-19.66c4.17-.38,7.76-.57,10.72-.72,7.16-.37,13.21-.38,17.57-.31h.01c1.02.01,1.95.03,2.78.06.82.02,1.68.04,2.61.08,2.33.07,4.98.18,7.91.36l2.45,6.11,1.03,2.56,4.63,11.52h-11.99ZM193.79,254.39c.3.06.6.1.91.16,3.26.58,5.76,1.12,10.15,2.09-.97,1.72-1.7,3.52-2.15,5.41-.63-.07-1.24-.15-1.86-.22-2.61-.31-5.63-.68-9.03-1.03.42-2.22,1.09-4.36,1.98-6.4ZM191.42,271.29c-.1-.87-.17-1.75-.19-2.66-.02-.45-.02-.89-.02-1.35,0-.7.01-1.41.06-2.1,2.12.3,4.31.65,6.58,1.05,1.32.23,2.53.46,3.78.72.16.02.31.06.46.09v.4c0,.68.02,1.35.08,2.01.23,2.7.93,5.25,2.09,7.63-2.32-.34-4.4-.59-6.54-.85-1.67-.2-3.51-.42-5.52-.66-.35-1.39-.6-2.82-.77-4.28ZM238.08,294.38c-1.37.89-2.75,1.68-4.19,2.34h-.01c-3.78,1.75-7.73,2.65-11.88,2.66h-.01s-.08.01-.13.01c-8.43,0-15.64-3.16-21.64-9.48-2.19-2.3-3.98-4.77-5.38-7.4-.37-.72-.72-1.43-1.03-2.16.32.06.66.11,1,.17,1.89.34,3.52.65,5.43,1.05,1.65.36,3.5.77,5.89,1.3.97.21,1.91.42,2.83.64,3.6,3.52,7.83,5.29,12.67,5.29,1.82,0,3.58-.3,5.32-.89,5.76,1.5,10.36,2.76,14.66,3.79-1.08.96-2.25,1.87-3.51,2.69ZM245.83,286.95c-4.21-1.05-8-2.17-11.94-3.32.84-.76,1.68-1.6,2.49-2.54h12.63c-.85,2.11-1.91,4.06-3.18,5.86ZM236.92,254.36c-4.44-5.41-9.67-8.11-15.71-8.11-4.92,0-9.15,1.84-12.71,5.52-4.25-.7-7.51-1.1-10.89-1.51-.49-.07-1-.12-1.52-.19,1.15-1.79,2.51-3.49,4.07-5.11,5.99-6.2,13.14-9.31,21.45-9.31,6.03,0,11.55,1.69,16.55,5.05,4.99,3.36,8.72,7.91,11.15,13.66h-12.39ZM259.71,268.24c3.36.31,7.02.74,10.95,1.33.23,2.47.84,4.82,1.85,7.02-3.54-.36-7.48-.7-11.81-.94-.6-2.36-.93-4.83-.99-7.41ZM290.33,299.39c-5.63,0-10.73-1.42-15.29-4.26,5.06-.1,9.23-.03,12.14.04,4.21.11,9.78.28,16.52.91-4.22,2.2-8.67,3.31-13.36,3.31ZM315.89,284.42c-1.07,1.92-2.35,3.69-3.83,5.31-.9.97-1.88,1.89-2.92,2.75-6.65-.57-14.52-.98-23.4-.83-3.97.07-7.78.3-14.4.77-.91-.77-1.79-1.61-2.66-2.51-2.91-3.07-5.12-6.44-6.63-10.08,4.11.37,8.64.91,13.56,1.7.23.27.46.54.7.8,3.84,4.3,8.43,6.46,13.77,6.46,3,0,5.85-.8,8.58-2.4,2.02-1.2,3.97-2.83,5.86-4.92.11-.12.23-.25.34-.38h12.62c-.47,1.16-1,2.27-1.59,3.33ZM305.42,254.36c-4.44-5.41-9.68-8.11-15.72-8.11-5.29,0-9.8,2.13-13.53,6.42-3.22,3.69-5.05,7.86-5.5,12.5-3.25-.34-6.87-.67-10.85-.92.63-7.38,3.57-13.8,8.84-19.28,5.98-6.2,13.12-9.31,21.44-9.31,6.04,0,11.55,1.69,16.55,5.05,5,3.36,8.72,7.91,11.16,13.66h-12.39ZM341.36,240.02c0,4.68-4.09,8.48-9.13,8.48h-2.23c-5.04,0-9.13-3.8-9.13-8.48v-2.07c0-4.68,4.09-8.48,9.13-8.48h2.23c5.04,0,9.13,3.8,9.13,8.48v2.07Z"/>
</svg>